<svg width="20" height="20" viewBox="0 0 20 20" fill="none" xmlns="http://www.w3.org/2000/svg">
<path d="M2.75 4.25C2.75 3.42157 3.42157 2.75 4.25 2.75H6.75C7.57843 2.75 8.25 3.42157 8.25 4.25V6.75C8.25 7.57843 7.57843 8.25 6.75 8.25H4.25C3.42157 8.25 2.75 7.57843 2.75 6.75V4.25Z" fill="white"/>
<path fill-rule="evenodd" clip-rule="evenodd" d="M2 4.25C2 3.00736 3.00736 2 4.25 2H6.75C7.99264 2 9 3.00736 9 4.25V6.75C9 7.99264 7.99264 9 6.75 9H4.25C3.00736 9 2 7.99264 2 6.75V4.25ZM4.25 3.5C3.83579 3.5 3.5 3.83579 3.5 4.25V6.75C3.5 7.16421 3.83579 7.5 4.25 7.5H6.75C7.16421 7.5 7.5 7.16421 7.5 6.75V4.25C7.5 3.83579 7.16421 3.5 6.75 3.5H4.25Z" fill="white"/>
<path d="M2.75 13.25C2.75 12.4216 3.42157 11.75 4.25 11.75H6.75C7.57843 11.75 8.25 12.4216 8.25 13.25V15.75C8.25 16.5784 7.57843 17.25 6.75 17.25H4.25C3.42157 17.25 2.75 16.5784 2.75 15.75V13.25Z" fill="white"/>
<path fill-rule="evenodd" clip-rule="evenodd" d="M2 13.25C2 12.0074 3.00736 11 4.25 11H6.75C7.99264 11 9 12.0074 9 13.25V15.75C9 16.9926 7.99264 18 6.75 18H4.25C3.00736 18 2 16.9926 2 15.75V13.25ZM4.25 12.5C3.83579 12.5 3.5 12.8358 3.5 13.25V15.75C3.5 16.1642 3.83579 16.5 4.25 16.5H6.75C7.16421 16.5 7.5 16.1642 7.5 15.75V13.25C7.5 12.8358 7.16421 12.5 6.75 12.5H4.25Z" fill="white"/>
<path d="M11.75 4.25C11.75 3.42157 12.4216 2.75 13.25 2.75H15.75C16.5784 2.75 17.25 3.42157 17.25 4.25V6.75C17.25 7.57843 16.5784 8.25 15.75 8.25H13.25C12.4216 8.25 11.75 7.57843 11.75 6.75V4.25Z" fill="white"/>
<path fill-rule="evenodd" clip-rule="evenodd" d="M11 4.25C11 3.00736 12.0074 2 13.25 2H15.75C16.9926 2 18 3.00736 18 4.25V6.75C18 7.99264 16.9926 9 15.75 9H13.25C12.0074 9 11 7.99264 11 6.75V4.25ZM13.25 3.5C12.8358 3.5 12.5 3.83579 12.5 4.25V6.75C12.5 7.16421 12.8358 7.5 13.25 7.5H15.75C16.1642 7.5 16.5 7.16421 16.5 6.75V4.25C16.5 3.83579 16.1642 3.5 15.75 3.5H13.25Z" fill="white"/>
<path d="M11.75 13.25C11.75 12.4216 12.4216 11.75 13.25 11.75H15.75C16.5784 11.75 17.25 12.4216 17.25 13.25V15.75C17.25 16.5784 16.5784 17.25 15.75 17.25H13.25C12.4216 17.25 11.75 16.5784 11.75 15.75V13.25Z" fill="white"/>
<path fill-rule="evenodd" clip-rule="evenodd" d="M11 13.25C11 12.0074 12.0074 11 13.25 11H15.75C16.9926 11 18 12.0074 18 13.25V15.75C18 16.9926 16.9926 18 15.75 18H13.25C12.0074 18 11 16.9926 11 15.75V13.25ZM13.25 12.5C12.8358 12.5 12.5 12.8358 12.5 13.25V15.75C12.5 16.1642 12.8358 16.5 13.25 16.5H15.75C16.1642 16.5 16.5 16.1642 16.5 15.75V13.25C16.5 12.8358 16.1642 12.5 15.75 12.5H13.25Z" fill="white"/>
</svg>
