<svg width="22" height="22" viewBox="0 0 22 22" fill="none" xmlns="http://www.w3.org/2000/svg">
<path d="M4.5737 19.2424L17.407 19.2574C18.4181 19.2586 19.2413 18.4373 19.2425 17.4262L19.2468 13.7595L17.4135 13.7574L17.4092 17.424L4.57584 17.409L4.59085 4.57571L17.4242 4.59072L17.4199 8.25738L19.2532 8.25953L19.2575 4.59286C19.2587 3.58178 18.4374 2.75857 17.4263 2.75739L4.59299 2.74238C3.58191 2.7412 2.7587 3.56249 2.75752 4.57357L2.74251 17.4069C2.74133 18.418 3.56353 19.2412 4.5737 19.2424Z" fill="white"/>
<path d="M11.9228 7.33461L7.33519 10.9959L11.9142 14.6679L11.9174 11.917L19.2508 11.9256L19.2529 10.0923L11.9196 10.0837L11.9228 7.33461Z" fill="white" fill-opacity="0.4"/>
</svg>
