<svg width="17" height="17" viewBox="0 0 17 17" fill="none" xmlns="http://www.w3.org/2000/svg">
<path d="M11.474 3.40783L13.592 5.52483L11.474 3.40783ZM12.836 1.54283L7.109 7.26983C6.81309 7.56533 6.61128 7.94181 6.529 8.35183L6 10.9998L8.648 10.4698C9.058 10.3878 9.434 10.1868 9.73 9.89083L15.457 4.16383C15.6291 3.99173 15.7656 3.78742 15.8588 3.56256C15.9519 3.33771 15.9998 3.09671 15.9998 2.85333C15.9998 2.60994 15.9519 2.36895 15.8588 2.14409C15.7656 1.91923 15.6291 1.71492 15.457 1.54283C15.2849 1.37073 15.0806 1.23421 14.8557 1.14108C14.6309 1.04794 14.3899 1 14.1465 1C13.9031 1 13.6621 1.04794 13.4373 1.14108C13.2124 1.23421 13.0081 1.37073 12.836 1.54283V1.54283Z" stroke="#49D399" stroke-width="1.5" stroke-linecap="round" stroke-linejoin="round"/>
<path d="M16 11V14C16 14.5304 15.7893 15.0391 15.4142 15.4142C15.0391 15.7893 14.5304 16 14 16H3C2.46957 16 1.96086 15.7893 1.58579 15.4142C1.21071 15.0391 1 14.5304 1 14V3C1 2.46957 1.21071 1.96086 1.58579 1.58579C1.96086 1.21071 2.46957 1 3 1H6" stroke="#49D399" stroke-width="1.5" stroke-linecap="round" stroke-linejoin="round"/>
</svg>
